<svg width="83" height="44" viewBox="0 0 83 44" fill="none" xmlns="http://www.w3.org/2000/svg">
<path d="M19.6341 22.5053H25.3625L33.8033 0H28.4833L24.6928 10.0934L25.3461 0H19.686L11.2457 22.5053H16.5652L20.2852 12.5485L19.6341 22.5053Z" fill="#BBC0D0"/>
<path d="M34.4934 0L26.0536 22.5053H31.3731L39.8129 0H34.4934Z" fill="#BBC0D0"/>
<path fill-rule="evenodd" clip-rule="evenodd" d="M10.6322 14.748C3.1988 23.4775 -3.81328 35.0928 2.38045 40.4415C8.3294 45.5793 15.7522 42.6092 20.8635 40.564L20.9989 40.5098C26.1139 38.4637 82.6501 13.9124 82.6501 13.9124C83.1956 13.6396 83.0936 13.2985 82.4114 13.4688C82.2955 13.4978 71.3412 16.4651 58.7063 19.8884L59.3336 18.1407H53.1278L55.1668 12.6851H60.2814L61.8551 8.49087H56.7406L58.4939 3.7511H63.8808L65.3104 0H49.0791L43.5059 6.75171L46.079 0H40.6912L32.3187 22.5053H37.6382L41.2128 13.094L41.4576 22.5053L49.1099 22.4886C34.6096 26.4177 20.8627 30.1432 20.8627 30.1432C13.0873 32.3259 4.22162 27.5688 10.6322 14.748ZM46.735 21.0047L46.3939 9.27507L54.4368 0.444437L46.735 21.0047Z" fill="#BBC0D0"/>
</svg>
