<svg width="161" height="21" viewBox="0 0 161 21" fill="none" xmlns="http://www.w3.org/2000/svg">
<path d="M0.551636 19.9999V0.150146H7.86615L15.3438 16.3835H16.2683L15.7245 16.8729V0.150146H19.912V19.9999H12.5431L5.06542 3.76661H4.14091L4.68474 3.27717V19.9999H0.551636Z" fill="#060714"/>
<path d="M24.5973 19.9999V0.150146H29.0567V19.9999H24.5973ZM28.5129 12.0056V8.30759H36.1809V12.0056H28.5129ZM28.5129 3.84819V0.150146H36.5072V3.84819H28.5129Z" fill="#060714"/>
<path d="M44.2212 19.9999V3.4947H48.6806V19.9999H44.2212ZM38.647 4.03853V0.150146H54.2821V4.03853H38.647Z" fill="#060714"/>
<path d="M63.2496 19.9999V0.150146H69.3949L73.9359 11.2987H74.4525L78.9391 0.150146H85.1931V19.9999H80.7881V3.05964L81.4135 3.11402L76.1656 15.9756H71.9237L66.6485 3.11402L67.3283 3.05964V19.9999H63.2496Z" fill="#060714"/>
<path d="M98.6267 19.9999V15.5949H97.8926V10.8092C97.8926 10.0478 97.7113 9.47683 97.3487 9.09615C96.9862 8.71546 96.4061 8.52512 95.6085 8.52512C95.2097 8.52512 94.684 8.53419 94.0314 8.55232C93.3788 8.57044 92.708 8.59764 92.0192 8.63389C91.3303 8.67015 90.7049 8.7064 90.143 8.74266V5.07181C90.5599 5.03555 91.0494 4.9993 91.6113 4.96304C92.1733 4.92678 92.7534 4.89959 93.3516 4.88146C93.9498 4.86334 94.5118 4.85427 95.0375 4.85427C96.5602 4.85427 97.8382 5.07181 98.8715 5.50687C99.9229 5.94193 100.72 6.60359 101.264 7.49185C101.808 8.36197 102.08 9.48589 102.08 10.8636V19.9999H98.6267ZM93.8682 20.3806C92.7987 20.3806 91.856 20.1903 91.0403 19.8096C90.2427 19.4289 89.6173 18.8851 89.1641 18.1781C88.7109 17.453 88.4843 16.5919 88.4843 15.5949C88.4843 14.5073 88.7653 13.619 89.3272 12.9301C89.8892 12.2232 90.6777 11.7065 91.6929 11.3802C92.7081 11.0358 93.8773 10.8636 95.2006 10.8636H98.382V13.2836H95.1734C94.4121 13.2836 93.8229 13.474 93.406 13.8547C93.0071 14.2172 92.8078 14.7157 92.8078 15.3502C92.8078 15.9484 93.0071 16.4378 93.406 16.8185C93.8229 17.1811 94.4121 17.3624 95.1734 17.3624C95.6629 17.3624 96.0979 17.2808 96.4786 17.1176C96.8774 16.9364 97.2037 16.6373 97.4575 16.2203C97.7113 15.8034 97.8563 15.2233 97.8926 14.4801L98.9258 15.5677C98.8352 16.601 98.5814 17.4711 98.1645 18.1781C97.7657 18.8851 97.2037 19.4289 96.4786 19.8096C95.7716 20.1903 94.9015 20.3806 93.8682 20.3806Z" fill="#060714"/>
<path d="M105.998 19.9999V5.099H109.451V11.489H109.37C109.37 9.38619 109.814 7.76376 110.702 6.62172C111.608 5.47968 112.914 4.90866 114.618 4.90866H115.189V8.66108H114.101C112.905 8.66108 111.98 8.98738 111.327 9.63998C110.675 10.2744 110.349 11.199 110.349 12.4135V19.9999H105.998Z" fill="#060714"/>
<path d="M128.165 19.9999L123.461 13.0389H121.367L127.431 5.099H131.999L126.289 12.4951L126.343 10.3741L133.06 19.9999H128.165ZM117.669 19.9999V0.150146H122.02V19.9999H117.669Z" fill="#060714"/>
<path d="M141.503 20.5166C140.234 20.5166 139.11 20.299 138.132 19.864C137.171 19.4289 136.364 18.8488 135.711 18.1237C135.077 17.3805 134.588 16.5557 134.243 15.6493C133.917 14.7248 133.754 13.7821 133.754 12.8214V12.2775C133.754 11.2805 133.917 10.3288 134.243 9.42244C134.588 8.49793 135.077 7.67312 135.711 6.94802C136.346 6.22291 137.134 5.65189 138.077 5.23495C139.038 4.79989 140.126 4.58236 141.34 4.58236C142.935 4.58236 144.277 4.94491 145.364 5.67002C146.47 6.377 147.313 7.31057 147.893 8.47074C148.473 9.61278 148.763 10.8636 148.763 12.2232V13.6915H135.576V11.2171H146.126L144.712 12.3591C144.712 11.4709 144.585 10.7095 144.331 10.075C144.077 9.44057 143.697 8.96019 143.189 8.63389C142.7 8.28947 142.083 8.11725 141.34 8.11725C140.579 8.11725 139.935 8.28947 139.41 8.63389C138.884 8.97832 138.485 9.48589 138.213 10.1566C137.941 10.8092 137.805 11.6159 137.805 12.5767C137.805 13.4649 137.932 14.2444 138.186 14.9151C138.44 15.5677 138.838 16.0753 139.382 16.4378C139.926 16.8004 140.633 16.9817 141.503 16.9817C142.301 16.9817 142.953 16.8276 143.461 16.5194C143.969 16.2113 144.313 15.8306 144.494 15.3774H148.491C148.274 16.3744 147.848 17.2627 147.213 18.0421C146.579 18.8216 145.781 19.4289 144.821 19.864C143.86 20.299 142.754 20.5166 141.503 20.5166Z" fill="#060714"/>
<path d="M158.644 20.1903C157.139 20.1903 155.924 20.009 155 19.6464C154.075 19.2658 153.396 18.6404 152.961 17.7702C152.544 16.882 152.335 15.6855 152.335 14.181V1.07466H156.387V14.3441C156.387 15.0511 156.568 15.5949 156.931 15.9756C157.311 16.3381 157.846 16.5194 158.535 16.5194H160.737V20.1903H158.644ZM150.078 8.2804V5.099H160.737V8.2804H150.078Z" fill="#060714"/>
</svg>
